<svg width="82" height="82" viewBox="0 0 82 82" fill="none" xmlns="http://www.w3.org/2000/svg">
<path fill-rule="evenodd" clip-rule="evenodd" d="M40.8194 10.0086C57.8357 10.0086 71.6301 23.803 71.6301 40.8193C71.6301 57.8355 57.8357 71.6299 40.8194 71.6299C23.8032 71.6299 10.0088 57.8355 10.0088 40.8193C10.0088 23.803 23.8032 10.0086 40.8194 10.0086ZM78.0088 40.8193C78.0088 20.2801 61.3585 3.62988 40.8194 3.62988C20.2803 3.62988 3.63005 20.2801 3.63005 40.8193C3.63005 61.3584 20.2803 78.0086 40.8194 78.0086C61.3585 78.0086 78.0088 61.3584 78.0088 40.8193Z" fill="#FFA3AB"/>
<circle cx="41" cy="41" r="40" stroke="#FFA3AB" stroke-opacity="0.5" stroke-width="1.5"/>
<rect x="37.8799" y="24.5303" width="7.04" height="22.88" rx="3.52" fill="#E53241"/>
<circle cx="41.3999" cy="54.4507" r="3.52" fill="#E53241"/>
</svg>
