<svg width="82" height="82" viewBox="0 0 82 82" fill="none" xmlns="http://www.w3.org/2000/svg">
<path fill-rule="evenodd" clip-rule="evenodd" d="M40.7955 51.489C39.5508 52.7338 37.5326 52.7338 36.2878 51.489L29.5263 44.7275C28.2815 43.4827 28.2815 41.4646 29.5263 40.2198C30.7711 38.975 32.7892 38.975 34.034 40.2198L38.5401 44.7259L52.0633 31.2027C53.3081 29.9579 55.3263 29.9579 56.571 31.2027C57.8158 32.4475 57.8158 34.4656 56.571 35.7104L40.8785 51.4029C40.8515 51.432 40.8238 51.4607 40.7955 51.489Z" fill="#00B23C" fill-opacity="0.88"/>
<path fill-rule="evenodd" clip-rule="evenodd" d="M40.8194 9.50764C57.7919 9.50764 71.6301 23.4818 71.6301 40.8183C71.6301 58.1547 57.7919 72.1289 40.8194 72.1289C23.8469 72.1289 10.0088 58.1547 10.0088 40.8183C10.0088 23.4818 23.8469 9.50764 40.8194 9.50764ZM78.0088 40.8183C78.0088 20.0471 61.4023 3.12891 40.8194 3.12891C20.2366 3.12891 3.63005 20.0471 3.63005 40.8183C3.63005 61.5895 20.2366 78.5076 40.8194 78.5076C61.4023 78.5076 78.0088 61.5895 78.0088 40.8183Z" fill="#A0E2BE"/>
<circle cx="41" cy="41" r="40" stroke="#B8EACF" stroke-opacity="0.5" stroke-width="1.5"/>
</svg>
