<svg width="96" height="26" viewBox="0 0 96 26" fill="none" xmlns="http://www.w3.org/2000/svg"><g clip-path="url(#clip0_4240_38829)"><path d="M37.271 6.03h-2.196v2.027H33.38v2.036h1.698v3.197H33.38v2.035h1.698v2.205a.287.287 0 0 1-.289.287h-1.477v2.192h1.477a2.485 2.485 0 0 0 2.484-2.48v-3.662h1.693v-2.035h-1.693v-1.737h1.693V8.059h-1.693V6.03h-.002zM45.92 5.963h-3.884a2.348 2.348 0 0 0-2.346 2.342v9.356a2.348 2.348 0 0 0 2.346 2.342h3.885a2.348 2.348 0 0 0 2.347-2.342V8.305a2.348 2.348 0 0 0-2.347-2.342zm.152 11.698a.15.15 0 0 1-.151.151h-3.885a.15.15 0 0 1-.15-.15V8.304a.15.15 0 0 1 .15-.15h3.885a.15.15 0 0 1 .151.15v9.356zM64.796 11.68h-4.92l2.807-3.566-.02-1.97H52.039v2.192h7.678l-2.633 3.345h-6.481v2.19h6.383v3.655c0 .16-.128.288-.288.288h-3.179v2.192h3.179a2.485 2.485 0 0 0 2.484-2.48v-3.654h5.617V11.68h-.003.001z" fill="#000"/><path d="M21.333 0H4.667A4.667 4.667 0 0 0 0 4.667v16.666A4.667 4.667 0 0 0 4.667 26h16.666A4.667 4.667 0 0 0 26 21.333V4.667A4.667 4.667 0 0 0 21.333 0z" fill="#4C53F0"/><path d="M22.292 12.963c-.033 0-.066 0-.098.003l-2.004.123.006-2.557a7.201 7.201 0 0 0-7.197-7.2 7.2 7.2 0 0 0-7.197 7.2l.006 2.557s-1.504-.094-2.005-.123c-.032-.003-.065-.003-.097-.003a1.702 1.702 0 0 0-.573 3.307c.666.24 2.662.97 2.662.97l-.035 1.51a2.4 2.4 0 0 0 3.963 1.822 3.609 3.609 0 0 0 6.552 0 2.4 2.4 0 0 0 3.963-1.822l-.035-1.51s1.996-.73 2.662-.97a1.702 1.702 0 0 0-.573-3.307zM9.594 14.466v-1.433a.7.7 0 0 1 1.4 0v1.433a.7.7 0 0 1-1.4 0zm5.9 2.382a3.173 3.173 0 0 1-2.497 1.205c-.979 0-1.888-.44-2.498-1.206a.628.628 0 1 1 .983-.782c.37.465.92.731 1.513.731.593 0 1.145-.266 1.514-.73a.628.628 0 0 1 .983.78l.001.002zm.2-1.682a.809.809 0 1 1 0-1.618.809.809 0 0 1 0 1.618z" fill="#fff"/><path d="M69.553 5.55h22.915a2.649 2.649 0 0 1 2.647 2.648v10.24a2.465 2.465 0 0 1-2.463 2.463h-23.1a2.465 2.465 0 0 1-2.463-2.464V8.014a2.465 2.465 0 0 1 2.464-2.464z" fill="#4C53F0"/><path d="M92.086 17.086V15.37c0-.595-.484-1.078-1.078-1.078h-7.704c-.595 0-1.078.484-1.078 1.078v1.714h-1.05v1.232l11.973.002v-1.232h-1.063zm-1.233 0h-1.642v-1.562h1.642v1.562zm-2.875 0h-1.652v-1.562h1.652v1.562zm-4.52-1.562h1.637v1.56h-1.637v-1.56zM82.891 12.61c-.04.173-.088.351-.146.53a3.865 3.865 0 0 1-.09.23l.006.003a3.91 3.91 0 0 1-.239.515l1.365.003c.261-.448.4-1.225.478-1.825h1.797l-.33 1.7 2.313-1.7h2.297v.625h-.835v1.232h1.07c.55 0 .997-.447.997-.996v-.86h1.008v-1.233h-1.008V9.048a.998.998 0 0 0-.996-.997H88.01l.188-.657h-1.822l-.187.657h-2.203a.998.998 0 0 0-.996.997v1.785h-1.216v1.232h1.19a4.58 4.58 0 0 1-.075.543l.001.002zm7.451-1.775h-1.896l.308-1.55h1.588v1.55zm-6.119-1.55h4.446l-1.978 1.55h-2.467v-1.55h-.001zM79.225 7.586h-8.282c-.595 0-1.078.484-1.078 1.078v2.162a1.08 1.08 0 0 0 1.078 1.079h1.9c-.229.547-.912 1.548-2.935 2.236l.396 1.167c1.128-.383 1.928-.87 2.496-1.364h5.891c-.033.332-.294 1.337-2.172 2.262-.178.088-.376.17-.592.248L74.8 14.706l-1.036.667.923 1.432c-1.317.292-3.002.462-4.886.48l.011 1.232c3.16-.03 5.735-.459 7.251-1.205 2.793-1.375 2.875-3.163 2.864-3.508-.012-.327-.124-1.09-.93-1.09h-5.185c.179-.327.273-.61.32-.808h5.092a1.08 1.08 0 0 0 1.078-1.079V8.665c0-.595-.484-1.078-1.078-1.078v-.001zm-3.152 1.232v1.855h-1.85V8.818h1.85zm-4.976 0h1.894v1.855h-1.894V8.818zm7.975 1.855h-1.767V8.818h1.767v1.855z" fill="#fff"/></g><defs><clipPath id="clip0_4240_38829"><path fill="#fff" d="M0 0h95.116v26H0z"/></clipPath></defs></svg>
