<svg width="16" height="16" viewBox="0 0 16 16" fill="none" xmlns="http://www.w3.org/2000/svg">
<path d="M3.44824 9.86406L5.18174 9.86406L2.19488 12.8509C1.93172 13.1141 1.93614 13.5436 2.19846 13.8075C2.45403 14.0647 2.86776 14.0637 3.12414 13.8073L6.11491 10.8165L6.11491 12.5307C6.11491 12.8989 6.41339 13.1974 6.78158 13.1974C7.14977 13.1974 7.44824 12.8989 7.44824 12.5307L7.44824 9.19739C7.44824 9.0133 7.37362 8.84663 7.25298 8.72599C7.13234 8.60534 6.96567 8.53072 6.78158 8.53072L3.44824 8.53072C3.08005 8.53072 2.78158 8.8292 2.78158 9.19739C2.78158 9.56558 3.08005 9.86406 3.44824 9.86406Z" fill="#202945" fill-opacity="0.62"/>
<path d="M12.8559 2.19427L9.90355 5.14661L9.90355 3.47998C9.90355 3.11179 9.60507 2.81331 9.23688 2.81331C8.8687 2.81331 8.57022 3.11179 8.57022 3.47998L8.57022 6.81331C8.57022 6.99741 8.64484 7.16407 8.76548 7.28472C8.88612 7.40536 9.05279 7.47998 9.23688 7.47998L12.5702 7.47998C12.9384 7.47998 13.2369 7.1815 13.2369 6.81331C13.2369 6.44512 12.9384 6.14665 12.5702 6.14665L10.7891 6.14665L13.7942 3.1416C14.0554 2.88039 14.0537 2.45593 13.7927 2.19445C13.534 1.93524 13.1148 1.93533 12.8559 2.19427Z" fill="#202945" fill-opacity="0.62"/>
</svg>
