<svg width="16" height="16" viewBox="0 0 16 16" fill="none" xmlns="http://www.w3.org/2000/svg">
<g filter="url(#filter0_i_3414_112820)">
<rect width="16" height="16" rx="4" fill="#34B27B"/>
<path d="M5.53809 3.95581C6.57697 3.5339 7.81251 3.74391 8.65527 4.58667C9.42894 5.36043 9.66914 6.46528 9.37695 7.44507L11.9619 10.031C12.2872 10.3564 12.2873 10.8833 11.9619 11.2087L11.21 11.9617C10.8846 12.287 10.3567 12.287 10.0312 11.9617L7.44629 9.37671C6.46636 9.66907 5.36076 9.4279 4.58691 8.65405C3.74479 7.81162 3.53488 6.57735 3.95605 5.53882C4.05623 5.29187 4.37211 5.25663 4.56055 5.44507L5.64355 6.5271C5.88764 6.77082 6.28338 6.77101 6.52734 6.5271C6.77113 6.28312 6.77102 5.88736 6.52734 5.64331L5.44434 4.56128C5.25595 4.37289 5.29126 4.05608 5.53809 3.95581Z" fill="white"/>
</g>
<defs>
<filter id="filter0_i_3414_112820" x="0" y="0" width="16" height="16" filterUnits="userSpaceOnUse" color-interpolation-filters="sRGB">
<feFlood flood-opacity="0" result="BackgroundImageFix"/>
<feBlend mode="normal" in="SourceGraphic" in2="BackgroundImageFix" result="shape"/>
<feColorMatrix in="SourceAlpha" type="matrix" values="0 0 0 0 0 0 0 0 0 0 0 0 0 0 0 0 0 0 127 0" result="hardAlpha"/>
<feOffset dy="-1"/>
<feComposite in2="hardAlpha" operator="arithmetic" k2="-1" k3="1"/>
<feColorMatrix type="matrix" values="0 0 0 0 0 0 0 0 0 0 0 0 0 0 0 0 0 0 0.1 0"/>
<feBlend mode="normal" in2="shape" result="effect1_innerShadow_3414_112820"/>
</filter>
</defs>
</svg>
