<svg width="16" height="16" viewBox="0 0 16 16" fill="none" xmlns="http://www.w3.org/2000/svg">
<g filter="url(#filter0_i_3414_112814)">
<rect width="16" height="16" rx="4" fill="#E5B55F"/>
<path d="M12.167 10.5459C12.167 10.7948 12.0987 11.0457 11.9189 11.2178C11.2026 11.9032 9.71693 12.374 8 12.374C6.28307 12.374 4.79736 11.9032 4.08105 11.2178C3.90127 11.0457 3.83301 10.7948 3.83301 10.5459V9.26172C4.39828 10.1007 6.05039 10.708 8 10.708C9.94961 10.708 11.6017 10.1007 12.167 9.26172V10.5459ZM12.167 8.25488C12.167 8.50374 12.0987 8.75468 11.9189 8.92676C11.2026 9.61217 9.71691 10.083 8 10.083C6.28309 10.083 4.79737 9.61217 4.08105 8.92676C3.90127 8.75468 3.83301 8.50374 3.83301 8.25488V6.9707C4.3983 7.80966 6.05042 8.41699 8 8.41699C9.94958 8.41699 11.6017 7.80966 12.167 6.9707V8.25488ZM8 3.625C10.301 3.625 12.1666 4.55756 12.167 5.70801C12.167 6.8586 10.3012 7.79199 8 7.79199C5.69881 7.79199 3.83301 6.8586 3.83301 5.70801C3.83336 4.55756 5.69903 3.625 8 3.625Z" fill="white"/>
</g>
<defs>
<filter id="filter0_i_3414_112814" x="0" y="0" width="16" height="16" filterUnits="userSpaceOnUse" color-interpolation-filters="sRGB">
<feFlood flood-opacity="0" result="BackgroundImageFix"/>
<feBlend mode="normal" in="SourceGraphic" in2="BackgroundImageFix" result="shape"/>
<feColorMatrix in="SourceAlpha" type="matrix" values="0 0 0 0 0 0 0 0 0 0 0 0 0 0 0 0 0 0 127 0" result="hardAlpha"/>
<feOffset dy="-1"/>
<feComposite in2="hardAlpha" operator="arithmetic" k2="-1" k3="1"/>
<feColorMatrix type="matrix" values="0 0 0 0 0 0 0 0 0 0 0 0 0 0 0 0 0 0 0.1 0"/>
<feBlend mode="normal" in2="shape" result="effect1_innerShadow_3414_112814"/>
</filter>
</defs>
</svg>
