<svg width="16" height="16" viewBox="0 0 16 16" fill="none" xmlns="http://www.w3.org/2000/svg">
<g filter="url(#filter0_i_3414_112806)">
<rect width="16" height="16" rx="4" fill="#8159F8"/>
<path d="M7.58301 8.24072V12.7134C7.47524 12.6812 7.3703 12.6362 7.27051 12.5786L4.39844 10.9214C3.94724 10.6609 3.66992 10.1787 3.66992 9.65771V6.34229C3.66992 6.22716 3.68297 6.11369 3.70898 6.00439L7.58301 8.24072ZM12.29 6.00439C12.3161 6.11371 12.3301 6.22715 12.3301 6.34229V9.65771C12.3301 10.1787 12.0518 10.6609 11.6006 10.9214L8.72852 12.5786C8.62871 12.6362 8.5238 12.6812 8.41602 12.7134V8.24072L12.29 6.00439ZM7.27051 3.42139C7.7217 3.16089 8.27732 3.16091 8.72852 3.42139L11.6006 5.07861C11.7003 5.1362 11.7914 5.20549 11.873 5.28271L7.99902 7.51904L4.12598 5.28271C4.2077 5.20543 4.29863 5.13624 4.39844 5.07861L7.27051 3.42139Z" fill="white"/>
</g>
<defs>
<filter id="filter0_i_3414_112806" x="0" y="0" width="16" height="16" filterUnits="userSpaceOnUse" color-interpolation-filters="sRGB">
<feFlood flood-opacity="0" result="BackgroundImageFix"/>
<feBlend mode="normal" in="SourceGraphic" in2="BackgroundImageFix" result="shape"/>
<feColorMatrix in="SourceAlpha" type="matrix" values="0 0 0 0 0 0 0 0 0 0 0 0 0 0 0 0 0 0 127 0" result="hardAlpha"/>
<feOffset dy="-1"/>
<feComposite in2="hardAlpha" operator="arithmetic" k2="-1" k3="1"/>
<feColorMatrix type="matrix" values="0 0 0 0 0 0 0 0 0 0 0 0 0 0 0 0 0 0 0.1 0"/>
<feBlend mode="normal" in2="shape" result="effect1_innerShadow_3414_112806"/>
</filter>
</defs>
</svg>
