<svg width="16" height="16" viewBox="0 0 16 16" fill="none" xmlns="http://www.w3.org/2000/svg">
<g filter="url(#filter0_i_3414_112808)">
<rect width="16" height="16" rx="4" fill="#00A3A3"/>
<path d="M3.66699 6.01831C3.89985 6.95177 4.48543 7.82794 5.16699 8.51147C5.7855 9.13174 6.52124 9.63802 7.24512 9.93921C7.69013 10.1243 8.15755 10.2423 8.60156 10.2429C8.13344 11.572 7.24533 12.5752 6.06152 12.6501V12.6531C4.70745 12.2694 3.625 11.042 3.625 9.44019V6.55933C3.62501 6.3738 3.6392 6.19305 3.66699 6.01831ZM9.32617 6.17554C10.7113 5.91636 12.0248 6.18387 12.6816 7.17163L12.6836 7.17065C13.0282 8.53505 12.5071 10.0855 11.1201 10.8865L8.625 12.3269C8.46436 12.4197 8.30093 12.498 8.13574 12.5613C8.82766 11.8929 9.2928 10.9474 9.54395 10.0154C9.7718 9.16968 9.84231 8.2801 9.74121 7.50269C9.67902 7.02451 9.54782 6.5605 9.32617 6.17554ZM8.47266 6.39917C8.68474 6.65961 8.84485 7.07048 8.91504 7.61011C8.98505 8.14852 8.95882 8.76969 8.83496 9.39136C8.50344 9.44479 8.06771 9.3786 7.56543 9.16968C7.06403 8.96106 6.53903 8.62697 6.0625 8.20874C6.18208 7.89492 6.45751 7.55096 6.88965 7.22046C7.321 6.89056 7.87222 6.60274 8.47266 6.39917ZM4.625 4.17651C5.63432 3.19594 7.23792 2.87184 8.625 3.67261L11.1201 5.11304C11.2809 5.20585 11.4299 5.30916 11.5674 5.42065C10.6425 5.15557 9.59097 5.22487 8.6582 5.47339C7.81206 5.69887 7.00643 6.08223 6.38379 6.55835C6.00074 6.85131 5.66398 7.19734 5.44141 7.58179C4.52456 6.51195 4.10019 5.2411 4.62695 4.17847L4.625 4.17651Z" fill="white"/>
</g>
<defs>
<filter id="filter0_i_3414_112808" x="0" y="0" width="16" height="16" filterUnits="userSpaceOnUse" color-interpolation-filters="sRGB">
<feFlood flood-opacity="0" result="BackgroundImageFix"/>
<feBlend mode="normal" in="SourceGraphic" in2="BackgroundImageFix" result="shape"/>
<feColorMatrix in="SourceAlpha" type="matrix" values="0 0 0 0 0 0 0 0 0 0 0 0 0 0 0 0 0 0 127 0" result="hardAlpha"/>
<feOffset dy="-1"/>
<feComposite in2="hardAlpha" operator="arithmetic" k2="-1" k3="1"/>
<feColorMatrix type="matrix" values="0 0 0 0 0 0 0 0 0 0 0 0 0 0 0 0 0 0 0.15 0"/>
<feBlend mode="normal" in2="shape" result="effect1_innerShadow_3414_112808"/>
</filter>
</defs>
</svg>
