<svg width="16" height="16" viewBox="0 0 16 16" fill="none" xmlns="http://www.w3.org/2000/svg">
<g filter="url(#filter0_i_3414_112810)">
<rect width="16" height="16" rx="4" fill="#E5B55F"/>
<path d="M7.53906 11.7878C7.79231 11.9541 8.11537 11.954 8.37012 11.7878L12.0244 9.38843C12.1892 9.58896 12.2179 9.88634 12.0762 10.1228C12.0293 10.2009 11.9654 10.267 11.8896 10.3171L8.26855 12.6951C8.07542 12.8209 7.83063 12.8211 7.63867 12.6951L4.0127 10.3103C3.73573 10.1282 3.65198 9.74654 3.82617 9.45581C3.84198 9.42945 3.85947 9.40414 3.87891 9.38062L7.53906 11.7878ZM7.53906 10.0837C7.79234 10.25 8.11536 10.25 8.37012 10.0837L12.0234 7.68433C12.1884 7.88486 12.2179 8.18216 12.0762 8.4187C12.0293 8.49676 11.9654 8.5629 11.8896 8.61304L8.26855 10.991C8.07543 11.1168 7.83064 11.1169 7.63867 10.991L4.0127 8.6062C3.73572 8.42406 3.65195 8.04244 3.82617 7.75171C3.84198 7.72535 3.85947 7.70004 3.87891 7.67651L7.53906 10.0837ZM7.63574 3.34546C7.82895 3.21936 8.07353 3.21936 8.26562 3.34546L8.26465 3.34741L11.8896 5.73022C12.1665 5.91229 12.2501 6.29403 12.0762 6.58472C12.0293 6.6629 11.9655 6.72983 11.8896 6.78003L8.26855 9.15698C8.07534 9.28308 7.83077 9.28308 7.63867 9.15698L4.0127 6.77319C3.73575 6.59107 3.65202 6.20942 3.82617 5.9187C3.87308 5.84047 3.93675 5.7736 4.0127 5.72339L7.63574 3.34546Z" fill="white"/>
</g>
<defs>
<filter id="filter0_i_3414_112810" x="0" y="0" width="16" height="16" filterUnits="userSpaceOnUse" color-interpolation-filters="sRGB">
<feFlood flood-opacity="0" result="BackgroundImageFix"/>
<feBlend mode="normal" in="SourceGraphic" in2="BackgroundImageFix" result="shape"/>
<feColorMatrix in="SourceAlpha" type="matrix" values="0 0 0 0 0 0 0 0 0 0 0 0 0 0 0 0 0 0 127 0" result="hardAlpha"/>
<feOffset dy="-1"/>
<feComposite in2="hardAlpha" operator="arithmetic" k2="-1" k3="1"/>
<feColorMatrix type="matrix" values="0 0 0 0 0 0 0 0 0 0 0 0 0 0 0 0 0 0 0.1 0"/>
<feBlend mode="normal" in2="shape" result="effect1_innerShadow_3414_112810"/>
</filter>
</defs>
</svg>
