<svg width="16" height="16" viewBox="0 0 16 16" fill="none" xmlns="http://www.w3.org/2000/svg">
<g filter="url(#filter0_i_3414_112818)">
<rect width="16" height="16" rx="4" fill="#5468FF"/>
<path d="M6.1543 3.49072C6.48548 3.49094 6.75391 3.75909 6.75391 4.09033C6.75391 4.42157 6.48548 4.68973 6.1543 4.68994C6.04258 4.68994 5.93887 4.72115 5.87891 4.76611C5.85388 4.78488 5.8332 4.808 5.81641 4.84326C5.79903 4.87975 5.77637 4.94836 5.77637 5.06787V6.82666C5.77637 7.14662 5.64211 7.40725 5.49902 7.59326C5.43903 7.67119 5.37202 7.74062 5.30469 7.8042C5.37216 7.86792 5.43892 7.93798 5.49902 8.01611C5.64208 8.20212 5.77637 8.46184 5.77637 8.78174V10.9321C5.77642 11.0514 5.79905 11.1203 5.81641 11.1567C5.83315 11.1917 5.854 11.2152 5.87891 11.2339C5.93892 11.2787 6.04277 11.3091 6.1543 11.3091C6.48537 11.3093 6.75371 11.5776 6.75391 11.9087C6.75391 12.2399 6.48548 12.5091 6.1543 12.5093C5.87509 12.5093 5.48918 12.4421 5.1582 12.1938C4.79833 11.9239 4.57628 11.4941 4.57617 10.9321V8.79248C4.57339 8.7859 4.56603 8.77118 4.54785 8.74756C4.50683 8.69424 4.43776 8.63077 4.34375 8.56494C4.25276 8.50125 4.15825 8.44778 4.08398 8.41064C4.0476 8.39245 4.01739 8.37917 3.99805 8.37061C3.98854 8.3664 3.98133 8.36341 3.97754 8.36182L3.97461 8.36084H3.97656C3.74877 8.26972 3.59961 8.04954 3.59961 7.8042C3.59962 7.55887 3.74877 7.33867 3.97656 7.24756H3.97461C3.97501 7.2474 3.97605 7.24721 3.97754 7.24658C3.98133 7.24499 3.98853 7.242 3.99805 7.23779C4.01739 7.22923 4.0476 7.21595 4.08398 7.19775C4.15825 7.16062 4.25277 7.10714 4.34375 7.04346C4.43777 6.97763 4.50683 6.91416 4.54785 6.86084C4.56689 6.83609 4.57371 6.82102 4.57617 6.81494V5.06787C4.57617 4.50584 4.79842 4.07621 5.1582 3.80615C5.48918 3.55792 5.87509 3.49072 6.1543 3.49072ZM9.84473 3.49072C10.1239 3.49072 10.5089 3.55792 10.8398 3.80615C11.1998 4.07619 11.4219 4.50565 11.4219 5.06787V6.81494C11.4242 6.82087 11.4311 6.83597 11.4502 6.86084C11.4912 6.9142 11.5612 6.97758 11.6553 7.04346C11.7463 7.10715 11.8408 7.16062 11.915 7.19775C11.9512 7.21582 11.9807 7.22924 12 7.23779C12.0095 7.24199 12.0166 7.24496 12.0205 7.24658C12.0224 7.24738 12.0241 7.24745 12.0244 7.24756H12.0225L12.1035 7.2876C12.2847 7.39421 12.3994 7.58951 12.3994 7.8042C12.3994 8.01889 12.2847 8.21418 12.1035 8.3208L12.0225 8.36084H12.0244C12.0241 8.36095 12.0224 8.36101 12.0205 8.36182C12.0166 8.36344 12.0095 8.36641 12 8.37061C11.9807 8.37916 11.9512 8.39258 11.915 8.41064C11.8408 8.44777 11.7463 8.50125 11.6553 8.56494C11.5612 8.63082 11.4912 8.6942 11.4502 8.74756C11.432 8.77129 11.4246 8.78603 11.4219 8.79248V10.9321C11.4218 11.4942 11.1998 11.9239 10.8398 12.1938C10.5089 12.4419 10.1239 12.5093 9.84473 12.5093C9.51336 12.5093 9.24512 12.2401 9.24512 11.9087C9.24531 11.5775 9.51347 11.3091 9.84473 11.3091C9.95642 11.3091 10.0601 11.2788 10.1201 11.2339C10.1451 11.2152 10.1659 11.1918 10.1826 11.1567C10.2 11.1203 10.2216 11.0514 10.2217 10.9321V8.78174C10.2217 8.462 10.356 8.2021 10.499 8.01611C10.559 7.9381 10.626 7.86784 10.6934 7.8042C10.6261 7.74062 10.559 7.67119 10.499 7.59326C10.3559 7.40725 10.2217 7.14662 10.2217 6.82666V5.06787C10.2217 4.94853 10.2 4.87979 10.1826 4.84326C10.1659 4.80811 10.145 4.78485 10.1201 4.76611C10.0602 4.72114 9.95646 4.68994 9.84473 4.68994C9.51336 4.68994 9.24512 4.4217 9.24512 4.09033C9.24512 3.75896 9.51336 3.49072 9.84473 3.49072Z" fill="white"/>
</g>
<defs>
<filter id="filter0_i_3414_112818" x="0" y="0" width="16" height="16" filterUnits="userSpaceOnUse" color-interpolation-filters="sRGB">
<feFlood flood-opacity="0" result="BackgroundImageFix"/>
<feBlend mode="normal" in="SourceGraphic" in2="BackgroundImageFix" result="shape"/>
<feColorMatrix in="SourceAlpha" type="matrix" values="0 0 0 0 0 0 0 0 0 0 0 0 0 0 0 0 0 0 127 0" result="hardAlpha"/>
<feOffset dy="-1"/>
<feComposite in2="hardAlpha" operator="arithmetic" k2="-1" k3="1"/>
<feColorMatrix type="matrix" values="0 0 0 0 0 0 0 0 0 0 0 0 0 0 0 0 0 0 0.1 0"/>
<feBlend mode="normal" in2="shape" result="effect1_innerShadow_3414_112818"/>
</filter>
</defs>
</svg>
