<svg width="16" height="16" viewBox="0 0 16 16" fill="none" xmlns="http://www.w3.org/2000/svg">
<g filter="url(#filter0_i_3565_115288)">
<rect width="16" height="16" rx="4" fill="#E5B55F"/>
<g clip-path="url(#clip0_3565_115288)">
<path d="M8.4707 3.46631C10.6008 3.46631 12.3281 5.19361 12.3281 7.32373C12.3281 8.67447 11.6333 9.86333 10.582 10.5522V12.5317H6.2959V11.1802H5.17969C4.91437 11.1802 4.69922 10.965 4.69922 10.6997V9.32471H4.13281C3.78688 9.32439 3.55508 8.97 3.69336 8.65283L4.83301 6.03955C5.36199 4.54084 6.79098 3.46649 8.4707 3.46631ZM8.41113 5.07373C7.98625 5.07394 7.64171 5.41835 7.6416 5.84326C7.64173 6.19627 7.88 6.49285 8.2041 6.5835V8.60498C8.13921 8.62313 8.07922 8.65252 8.02246 8.68604L7.31934 7.98389C7.38709 7.86931 7.42963 7.73698 7.42969 7.59424C7.42929 7.16961 7.08482 6.82497 6.66016 6.82471C6.23546 6.82492 5.89005 7.16958 5.88965 7.59424C5.8898 8.01911 6.2353 8.36453 6.66016 8.36475C6.79026 8.36466 6.91112 8.32807 7.01855 8.271L7.7334 8.98682C7.67636 9.09422 7.64169 9.21612 7.6416 9.34619C7.64175 9.77093 7.98646 10.1153 8.41113 10.1157C8.83611 10.1156 9.18149 9.77115 9.18164 9.34619C9.18142 8.99363 8.94367 8.69592 8.62012 8.60498V6.5835C8.6828 6.56586 8.74079 6.53837 8.7959 6.50635L9.5 7.21045C9.4343 7.32367 9.39369 7.45394 9.39355 7.59424C9.3937 8.01906 9.7383 8.36445 10.1631 8.36475C10.5881 8.36467 10.9325 8.0192 10.9326 7.59424C10.9322 7.16949 10.5879 6.82478 10.1631 6.82471C10.0305 6.8248 9.90675 6.86127 9.79785 6.92041L9.08496 6.20752C9.14391 6.09871 9.18159 5.97569 9.18164 5.84326C9.18153 5.41827 8.83613 5.07381 8.41113 5.07373Z" fill="white"/>
</g>
</g>
<defs>
<filter id="filter0_i_3565_115288" x="0" y="0" width="16" height="16" filterUnits="userSpaceOnUse" color-interpolation-filters="sRGB">
<feFlood flood-opacity="0" result="BackgroundImageFix"/>
<feBlend mode="normal" in="SourceGraphic" in2="BackgroundImageFix" result="shape"/>
<feColorMatrix in="SourceAlpha" type="matrix" values="0 0 0 0 0 0 0 0 0 0 0 0 0 0 0 0 0 0 127 0" result="hardAlpha"/>
<feOffset dy="-1"/>
<feComposite in2="hardAlpha" operator="arithmetic" k2="-1" k3="1"/>
<feColorMatrix type="matrix" values="0 0 0 0 0 0 0 0 0 0 0 0 0 0 0 0 0 0 0.1 0"/>
<feBlend mode="normal" in2="shape" result="effect1_innerShadow_3565_115288"/>
</filter>
<clipPath id="clip0_3565_115288">
<rect width="10" height="10" fill="white" transform="translate(3 3)"/>
</clipPath>
</defs>
</svg>
