<svg width="16" height="16" viewBox="0 0 16 16" fill="none" xmlns="http://www.w3.org/2000/svg">
<g filter="url(#filter0_i_3414_112823)">
<rect width="16" height="16" rx="4" fill="#5468FF"/>
<path d="M11.4785 10.0461C11.5243 9.90979 11.7179 9.90977 11.7637 10.0461L11.8447 10.2903C11.9046 10.4694 12.0454 10.6104 12.2246 10.6702L12.4678 10.7512C12.6044 10.7969 12.6044 10.9897 12.4678 11.0354L12.2246 11.1165C12.0454 11.1762 11.9046 11.3171 11.8447 11.4963L11.7637 11.7395C11.718 11.8764 11.5241 11.8764 11.4785 11.7395L11.3975 11.4963C11.3376 11.3171 11.1968 11.1762 11.0176 11.1165L10.7744 11.0354C10.6377 10.9897 10.6377 10.7969 10.7744 10.7512L11.0176 10.6702C11.1968 10.6104 11.3376 10.4694 11.3975 10.2903L11.4785 10.0461ZM9.46582 10.3713C9.77192 10.3713 10.0205 10.6199 10.0205 10.926C10.0204 11.2321 9.77187 11.4797 9.46582 11.4797H4.33203C4.02611 11.4796 3.77839 11.232 3.77832 10.926C3.77832 10.62 4.02606 10.3715 4.33203 10.3713H9.46582ZM11.5508 7.69556C11.8566 7.69564 12.1042 7.94345 12.1045 8.24927C12.1045 8.55531 11.8568 8.80387 11.5508 8.80396H4.33203C4.02606 8.8038 3.77832 8.55527 3.77832 8.24927C3.77858 7.94349 4.02622 7.69571 4.33203 7.69556H11.5508ZM5.15039 3.92212C5.22875 3.68752 5.56127 3.68754 5.63965 3.92212L5.77832 4.34009C5.88086 4.64752 6.12229 4.88885 6.42969 4.99146L6.84766 5.13013C7.08247 5.2084 7.08243 5.54108 6.84766 5.61938L6.42969 5.75806C6.12219 5.86067 5.88083 6.10286 5.77832 6.4104L5.63965 6.82739C5.56137 7.06222 5.22867 7.06222 5.15039 6.82739L5.01172 6.4104C4.9092 6.10284 4.66788 5.86065 4.36035 5.75806L3.94238 5.61938C3.70767 5.54104 3.70761 5.2084 3.94238 5.13013L4.36035 4.99146C4.66777 4.88886 4.90917 4.64753 5.01172 4.34009L5.15039 3.92212ZM11.5508 5.02075C11.8568 5.02084 12.1045 5.2694 12.1045 5.57544C12.1045 5.88148 11.8568 6.13004 11.5508 6.13013H8.54297C8.23709 6.12987 7.98926 5.88138 7.98926 5.57544C7.98926 5.2695 8.23709 5.02101 8.54297 5.02075H11.5508Z" fill="white"/>
</g>
<defs>
<filter id="filter0_i_3414_112823" x="0" y="0" width="16" height="16" filterUnits="userSpaceOnUse" color-interpolation-filters="sRGB">
<feFlood flood-opacity="0" result="BackgroundImageFix"/>
<feBlend mode="normal" in="SourceGraphic" in2="BackgroundImageFix" result="shape"/>
<feColorMatrix in="SourceAlpha" type="matrix" values="0 0 0 0 0 0 0 0 0 0 0 0 0 0 0 0 0 0 127 0" result="hardAlpha"/>
<feOffset dy="-1"/>
<feComposite in2="hardAlpha" operator="arithmetic" k2="-1" k3="1"/>
<feColorMatrix type="matrix" values="0 0 0 0 0 0 0 0 0 0 0 0 0 0 0 0 0 0 0.15 0"/>
<feBlend mode="normal" in2="shape" result="effect1_innerShadow_3414_112823"/>
</filter>
</defs>
</svg>
