<svg
  width="37"
  height="16"
  viewBox="0 0 37 16"
  fill="none"
  xmlns="http://www.w3.org/2000/svg"
>
  <rect
    y="-0.00195312"
    width="36.1146"
    height="16"
    rx="3"
    fill="url(#paint0_linear_1672_398582)"
    fill-opacity="0.1"
  />
  <path
    d="M6.20194 4.88573H7.53194L9.31829 11.9631H8.06829L7.65487 10.1888H4.66487L3.77829 11.9631H2.52829L6.20194 4.88573ZM5.14174 9.23722H7.43174L6.72542 6.13467H6.68542L5.14174 9.23722ZM10.9591 4.88573H12.1291L11.1854 11.9631H10.0154L10.9591 4.88573ZM16.7699 4.19187H22.2699L22.1404 5.16327H19.8904L19.4318 8.60283H21.9918L21.861 9.58415H19.301L18.845 13.0039H17.825L18.281 9.58415H15.761L15.8918 8.60283H18.4118L18.8704 5.16327H16.6404L16.7699 4.19187ZM21.0055 5.50029L21.8838 5.73818C21.5569 6.68976 21.1872 7.51248 20.782 8.22617L19.953 7.91888C20.3176 7.2845 20.6659 6.47169 21.0055 5.50029ZM17.5715 5.53002C17.735 6.25362 17.864 7.08625 17.9485 8.02792L17.0294 8.24599C16.9617 7.40345 16.8288 6.60055 16.6419 5.82739L17.5715 5.53002ZM14.7409 3.88459C15.3061 4.37029 15.7814 4.85599 16.1679 5.33178L15.3515 6.05538C15.0323 5.59941 14.547 5.11371 13.9057 4.59827L14.7409 3.88459ZM12.9389 6.74924H15.3189L14.7758 10.8232C15.0561 10.5952 15.3605 10.3375 15.6775 10.0599L15.8221 11.1503C15.1242 11.7351 14.4041 12.2605 13.642 12.7263L13.3762 11.7946C13.5661 11.6459 13.6798 11.4675 13.7076 11.2593L14.1768 7.74046H12.8068L12.9389 6.74924ZM26.3964 3.99362L27.2237 4.5388C26.6553 5.3516 26.0954 6.02564 25.5567 6.54108C25.028 7.05652 24.2926 7.62152 23.3294 8.24599L22.8823 7.32415C23.5472 6.98713 24.2107 6.51134 24.8539 5.88687C25.3727 5.37143 25.8859 4.74695 26.3964 3.99362ZM26.0452 8.65239H24.2452L24.3787 7.65125H30.4587C30.2469 8.93985 30.0494 9.97073 29.8437 10.7637C29.6379 11.5567 29.4053 12.1019 29.123 12.4191C28.8533 12.7164 28.4608 12.8849 27.9469 12.9147H26.0269L25.883 11.8937C26.4704 11.9135 27.0277 11.9334 27.5477 11.9334C28.0377 11.9334 28.3855 11.7252 28.5983 11.3287C28.8139 10.9124 29.0428 10.0203 29.2652 8.65239H27.1052C26.7404 9.66345 26.3233 10.4663 25.8427 11.071C25.2262 11.7946 24.369 12.4488 23.2723 13.0237L22.7073 12.1613C23.6708 11.6856 24.4208 11.1602 24.9575 10.5853C25.3736 10.0897 25.7395 9.44538 26.0452 8.65239ZM29.5422 3.87467C29.8853 5.3516 30.7393 6.52125 32.1057 7.37371L31.286 8.19643C29.8768 7.21511 28.966 5.94634 28.5648 4.3802L29.5422 3.87467Z"
    fill="url(#paint1_linear_1672_398582)"
  />
  <defs>
    <linearGradient
      id="paint0_linear_1672_398582"
      x1="9.02866"
      y1="7.99805"
      x2="39.9162"
      y2="7.99805"
      gradientUnits="userSpaceOnUse"
    >
      <stop offset="0.225962" stop-color="#3D30FF" />
      <stop offset="1" stop-color="#9D47FF" />
    </linearGradient>
    <linearGradient
      id="paint1_linear_1672_398582"
      x1="2.72654"
      y1="10.4763"
      x2="31.7113"
      y2="14.3409"
      gradientUnits="userSpaceOnUse"
    >
      <stop stop-color="#1C95FF" />
      <stop offset="0.240818" stop-color="#3B5FFF" />
      <stop offset="0.909427" stop-color="#AC40FF" />
      <stop offset="1" stop-color="#C940FF" />
    </linearGradient>
  </defs>
</svg>
