<svg xmlns="http://www.w3.org/2000/svg" width="1em" height="1em" viewBox="0 -1 9 7" fill="currentColor">
  <path fill-rule="evenodd" clip-rule="evenodd" d="M1.06726 6.34286C0.894051 6.5353 0.597634 6.5509 0.405189 6.3777C0.212744 6.20449 0.197147 5.90807 0.370351 5.71563L2.41952 3.43883C2.6218 3.21408 2.96557 3.18943 3.19785 3.38304L4.21267 4.22892L6.14677 1.81186H3.99961C3.87015 1.81186 3.76521 1.70691 3.76521 1.57746V1.10866C3.76521 0.979202 3.87015 0.874258 3.99961 0.874258H6.8124H7.5156C7.64506 0.874258 7.75 0.979202 7.75 1.10866V1.81186V4.62465C7.75 4.75411 7.64506 4.85905 7.5156 4.85905H7.0468C6.91735 4.85905 6.8124 4.75411 6.8124 4.62465V2.48068L4.70569 5.11346C4.50882 5.35948 4.1483 5.39585 3.90626 5.19411L2.87488 4.33443L1.06726 6.34286Z" fill="currentColor"/>
</svg>
