<svg xmlns="http://www.w3.org/2000/svg" width="1em" height="1em" viewBox="0 1 9 7" fill="currentColor">
  <path fill-rule="evenodd" clip-rule="evenodd" d="M2.06726 2.65324C1.89405 2.46079 1.59763 2.44519 1.40519 2.6184C1.21274 2.7916 1.19715 3.08802 1.37035 3.28046L3.41952 5.55726C3.6218 5.78202 3.96557 5.80666 4.19785 5.61305L5.21267 4.76718L7.14677 7.18424H4.99961C4.87015 7.18424 4.76521 7.28918 4.76521 7.41864V7.88744C4.76521 8.01689 4.87015 8.12184 4.99961 8.12184H7.8124H8.5156C8.64506 8.12184 8.75 8.01689 8.75 7.88744V7.18424V4.37144C8.75 4.24199 8.64506 4.13704 8.5156 4.13704H8.0468C7.91735 4.13704 7.8124 4.24199 7.8124 4.37144V6.51541L5.70569 3.88264C5.50883 3.63661 5.1483 3.60024 4.90626 3.80199L3.87488 4.66166L2.06726 2.65324Z" fill="currentColor"/>
</svg>
