<svg width="49" height="48" viewBox="0 0 49 48" fill="none" xmlns="http://www.w3.org/2000/svg">
<g clip-path="url(#clip0_1777_31081)">
<path d="M24.4994 2.39941C12.6994 2.39941 2.89941 12.1994 2.89941 23.9994C2.89941 35.7994 12.6994 45.5994 24.4994 45.5994C36.2994 45.5994 46.0994 35.7994 46.0994 23.9994C46.0994 12.1994 36.2994 2.39941 24.4994 2.39941ZM24.4994 42.3994C14.2994 42.3994 6.09941 34.1994 6.09941 23.9994C6.09941 13.7994 14.2994 5.59941 24.4994 5.59941C34.6994 5.59941 42.8994 13.7994 42.8994 23.9994C42.8994 34.1994 34.6994 42.3994 24.4994 42.3994Z" fill="#52649A" fill-opacity="0.13"/>
<path d="M31.9011 14.5996L21.1011 19.7996C20.7011 19.9996 20.5011 20.1996 20.3011 20.5996L15.1011 31.3996C14.9011 31.9996 14.9011 32.5996 15.3011 33.1996C15.5011 33.3996 15.9011 33.5996 16.3011 33.5996C16.5011 33.5996 16.7011 33.5996 16.9011 33.3996L27.5011 28.1996C27.7011 27.9996 28.1011 27.7996 28.1011 27.5996L33.5011 16.7996C33.7011 16.1996 33.7011 15.5996 33.3011 14.9996C33.1011 14.3996 32.5011 14.3996 31.9011 14.5996ZM25.9011 25.5996L19.7011 28.5996L22.7011 22.1996L29.1011 19.1996L25.9011 25.5996Z" fill="#52649A" fill-opacity="0.13"/>
</g>
<defs>
<clipPath id="clip0_1777_31081">
<rect width="48" height="48" fill="white" transform="translate(0.5)"/>
</clipPath>
</defs>
</svg>
