<svg width="28" height="28" viewBox="0 0 28 28" fill="none" xmlns="http://www.w3.org/2000/svg">
<path d="M22.9749 0H5.02515C2.24984 0 0 2.24983 0 5.02514V22.9749C0 25.7502 2.24984 28 5.02515 28H22.9749C25.7502 28 28 25.7502 28 22.9749V5.02514C28 2.24983 25.7502 0 22.9749 0Z" fill="#4D53E8"/>
<path d="M24.0064 13.9599C23.9715 13.9599 23.9366 13.9599 23.9016 13.9625C23.362 13.9949 21.743 14.0958 21.743 14.0958L21.7482 11.3419C21.7482 7.06086 18.2786 3.58998 13.9976 3.58868C9.71657 3.58998 6.24698 7.06086 6.24698 11.3419L6.25216 14.0958C6.25216 14.0958 4.63319 13.9949 4.09353 13.9625C4.05859 13.9599 4.02365 13.9599 3.98871 13.9599C2.9754 13.9599 2.15491 14.7817 2.15491 15.7937C2.15491 16.5896 2.66351 17.2664 3.3714 17.5214C4.08965 17.7802 6.23922 18.5645 6.23922 18.5645L6.20168 20.1925C6.20168 21.6199 7.35864 22.7782 8.78737 22.7782C9.43056 22.7782 10.0181 22.5427 10.471 22.1544C11.0871 23.4861 12.4356 24.4088 13.9989 24.4088C15.5622 24.4088 16.9094 23.4848 17.5267 22.1544C17.9796 22.5427 18.5672 22.7782 19.2104 22.7782C20.6378 22.7782 21.7961 21.6212 21.7961 20.1925L21.7585 18.5645C21.7585 18.5645 23.9081 17.7802 24.6263 17.5214C25.3342 17.2664 25.8428 16.5896 25.8428 15.7937C25.8428 14.7804 25.0211 13.9599 24.009 13.9599H24.0064ZM10.3339 15.5776V14.035C10.3339 13.6183 10.6716 13.2805 11.0884 13.2805C11.5051 13.2805 11.8428 13.6183 11.8428 14.035V15.5776C11.8428 15.9943 11.5051 16.3321 11.0884 16.3321C10.6716 16.3321 10.3339 15.9943 10.3339 15.5776ZM16.6855 18.1426C16.0294 18.9669 15.0497 19.4393 13.9976 19.4393C12.9454 19.4393 11.9645 18.9657 11.3084 18.14C11.0754 17.8475 11.1246 17.4217 11.4171 17.1901C11.7095 16.9571 12.1353 17.0063 12.367 17.2988C12.7643 17.7996 13.3583 18.0869 13.9976 18.0869C14.6369 18.0869 15.2296 17.7996 15.6269 17.3001C15.8598 17.0076 16.2843 16.9597 16.5768 17.1914C16.8693 17.4243 16.9172 17.8488 16.6855 18.1413V18.1426ZM16.9016 16.3321C16.4202 16.3321 16.0307 15.9425 16.0307 15.4611C16.0307 14.9797 16.4202 14.5902 16.9016 14.5902C17.3831 14.5902 17.7726 14.9797 17.7726 15.4611C17.7726 15.9425 17.3831 16.3321 16.9016 16.3321Z" fill="white"/>
</svg>
