<svg width="1em" height="1em" viewBox="0 0 14 14" fill="currentColor" xmlns="http://www.w3.org/2000/svg">
 <path d="M6.33496 1.15283C6.7542 0.943062 7.24575 0.943161 7.66504 1.15283C9.19737 1.9191 11.3927 3.02352 12.4043 3.53271C12.7416 3.70257 12.9531 4.04767 12.9531 4.42529V7.00439C12.7511 7.01132 12.5463 7.02764 12.3691 7.06396C12.1521 7.1085 11.9773 7.20629 11.8223 7.31689V4.81689L7.56543 6.76416V11.5298L7.61035 11.5054C7.60695 11.5274 7.60286 11.5494 7.60059 11.5718L7.59375 11.7036L7.60059 11.8354C7.63141 12.1384 7.76887 12.4089 7.97266 12.6128L7.71289 12.7524C7.27182 12.9876 6.74376 12.9878 6.30273 12.7524C4.7445 11.921 2.56284 10.756 1.57129 10.2261C1.24594 10.0521 1.04395 9.71317 1.04395 9.34424V4.42627C1.04395 4.04842 1.25427 3.70349 1.5918 3.53369C2.67769 2.98793 5.10267 1.76942 6.33496 1.15283ZM2.17383 9.26807L6.43457 11.5298V6.78369L2.17383 4.83643V9.26807ZM3.15918 4.02979L6.97754 5.78662L10.8154 4.02002L7 2.16553L3.15918 4.02979Z" fill="currentColor" />
  <path d="M13.5167 7.80054C13.7861 7.80054 14.0045 8.01894 14.0045 8.28836C14.0045 8.55778 13.7861 8.77618 13.5167 8.77618H12.7781L11.7495 10.0853L12.1531 11.2153H12.7849C13.0544 11.2153 13.2728 11.4337 13.2728 11.7031C13.2728 11.9725 13.0544 12.1909 12.7849 12.1909H12.1531C11.7407 12.1909 11.3729 11.9317 11.2343 11.5434L11.0373 10.9918L10.3881 11.8181C10.2031 12.0535 9.92029 12.1909 9.6209 12.1909H8.88235C8.61294 12.1909 8.39453 11.9725 8.39453 11.7031C8.39453 11.4337 8.61294 11.2153 8.88235 11.2153H9.6209L10.6495 9.90615L10.246 8.77618H9.61409C9.34467 8.77618 9.12627 8.55778 9.12627 8.28836C9.12627 8.01894 9.34467 7.80054 9.61409 7.80054H10.246C10.6583 7.80054 11.0261 8.05974 11.1648 8.44804L11.3618 8.99965L12.011 8.17341C12.1959 7.93799 12.4787 7.80054 12.7781 7.80054H13.5167Z" fill="currentColor" />
</svg>
