<svg width="24" height="24" viewBox="0 0 24 24" fill="none" xmlns="http://www.w3.org/2000/svg">
<rect width="24" height="24" rx="4" fill="#F26D00"/>
<path d="M8.93746 6.16666C7.40717 6.16666 6.16663 7.4072 6.16663 8.93749C6.16663 10.4678 7.40717 11.7083 8.93746 11.7083H10.5416C11.186 11.7083 11.7083 11.186 11.7083 10.5417V8.93749C11.7083 7.4072 10.4677 6.16666 8.93746 6.16666Z" fill="white"/>
<path d="M8.93746 12.2917C7.40717 12.2917 6.16663 13.5322 6.16663 15.0625C6.16663 16.5928 7.40717 17.8333 8.93746 17.8333C10.4677 17.8333 11.7083 16.5928 11.7083 15.0625V13.4583C11.7083 12.814 11.186 12.2917 10.5416 12.2917H8.93746Z" fill="white"/>
<path d="M12.2916 8.93749C12.2916 7.4072 13.5321 6.16666 15.0625 6.16666C16.5928 6.16666 17.8333 7.4072 17.8333 8.93749C17.8333 10.4678 16.5928 11.7083 15.0625 11.7083H13.4583C12.8139 11.7083 12.2916 11.186 12.2916 10.5417V8.93749Z" fill="white"/>
<path d="M13.4583 12.2917C12.8139 12.2917 12.2916 12.814 12.2916 13.4583V15.0625C12.2916 16.5928 13.5321 17.8333 15.0625 17.8333C16.5928 17.8333 17.8333 16.5928 17.8333 15.0625C17.8333 13.5322 16.5928 12.2917 15.0625 12.2917H13.4583Z" fill="white"/>
</svg>
