<svg width="12" height="12" viewBox="0 0 12 12" fill="none" xmlns="http://www.w3.org/2000/svg">
<path d="M9.38607 5.62243L8.06618 10.783C8.06276 10.797 8.06276 10.8117 8.06618 10.8258C8.07132 10.8471 8.0836 10.8661 8.101 10.8795C8.1184 10.893 8.13986 10.9001 8.16184 10.8996H10.8001C10.8146 10.9 10.8291 10.897 10.8423 10.8909C10.8556 10.8849 10.8673 10.8759 10.8765 10.8647C10.8858 10.8535 10.8924 10.8403 10.8959 10.8261C10.8994 10.812 10.8996 10.7972 10.8965 10.783L9.57041 5.62243C9.56393 5.60312 9.55155 5.58633 9.53501 5.57444C9.51847 5.56255 9.49862 5.55615 9.47825 5.55615C9.45788 5.55615 9.43802 5.56255 9.42148 5.57444C9.40495 5.58633 9.39256 5.60312 9.38608 5.62243M2.12397 6.79065L1.10195 10.783C1.09874 10.7973 1.09883 10.8121 1.10223 10.8263C1.10562 10.8405 1.11223 10.8537 1.12154 10.865C1.13086 10.8763 1.14263 10.8852 1.15595 10.8913C1.16927 10.8973 1.18379 10.9001 1.1984 10.8997H3.23462C3.24926 10.9 3.26379 10.897 3.27713 10.891C3.29046 10.8849 3.30225 10.8759 3.31162 10.8647C3.3208 10.8533 3.32719 10.84 3.33029 10.8258C3.33372 10.8117 3.33372 10.797 3.33029 10.783L2.30751 6.79143C2.30143 6.77197 2.28914 6.75504 2.27252 6.74322C2.25586 6.73126 2.23586 6.72482 2.21535 6.72482C2.19484 6.72482 2.17485 6.73126 2.15818 6.74322C2.14185 6.75516 2.12984 6.77208 2.12396 6.79143" fill="#00E5E5"/>
<path d="M3.92693 3.48781L2.06493 10.7834C2.06174 10.7971 2.06169 10.8113 2.06479 10.8251C2.06789 10.8388 2.07406 10.8517 2.08283 10.8627C2.0915 10.8741 2.10268 10.8833 2.11549 10.8896C2.12831 10.896 2.14241 10.8993 2.15671 10.8993H5.88227C5.89675 10.8995 5.91111 10.8966 5.92428 10.8906C5.93746 10.8846 5.94912 10.8757 5.95838 10.8645C5.96765 10.8534 5.97429 10.8403 5.9778 10.8263C5.98132 10.8122 5.98164 10.7976 5.97871 10.7834L4.11128 3.48781C4.10535 3.46806 4.09304 3.45083 4.07628 3.43881C4.05962 3.42685 4.03963 3.42041 4.01912 3.42041C3.99861 3.42041 3.97861 3.42685 3.96195 3.43881C3.94519 3.45083 3.93288 3.46806 3.92694 3.48781" fill="#006EFF"/>
<path d="M7.13958 1.16672C7.13329 1.14715 7.12071 1.13019 7.1038 1.1185C7.08714 1.10653 7.06715 1.1001 7.04664 1.1001C7.02613 1.1001 7.00613 1.10653 6.98947 1.1185C6.97285 1.13032 6.96055 1.14725 6.95447 1.16672L4.41037 10.7832C4.40731 10.7973 4.40749 10.812 4.41091 10.826C4.41433 10.8401 4.42089 10.8532 4.4301 10.8643C4.43931 10.8755 4.45092 10.8844 4.46408 10.8904C4.47723 10.8964 4.49158 10.8994 4.50604 10.8991H9.59269C9.61476 10.8996 9.63638 10.8927 9.65402 10.8794C9.67167 10.8662 9.68432 10.8473 9.68992 10.826C9.69314 10.8119 9.69314 10.7973 9.68992 10.7832L7.1388 1.16672H7.13958Z" fill="#006EFF"/>
<path d="M5.27112 4.54784L3.65644 10.7833C3.65339 10.7975 3.6536 10.8123 3.65705 10.8264C3.66051 10.8406 3.66713 10.8538 3.67641 10.865C3.68569 10.8762 3.69739 10.8852 3.71064 10.8913C3.72388 10.8973 3.73833 10.9003 3.75289 10.9L6.97445 10.9007C6.98928 10.9011 7.00398 10.898 7.01745 10.8918C7.03092 10.8856 7.04281 10.8764 7.05222 10.865C7.06136 10.8537 7.06785 10.8405 7.07122 10.8263C7.07458 10.8122 7.07474 10.7975 7.07167 10.7833L5.45545 4.54784C5.44895 4.52842 5.43652 4.51152 5.41992 4.49953C5.40332 4.48753 5.38338 4.48104 5.36289 4.48096C5.34255 4.4812 5.32278 4.48776 5.30633 4.49975C5.28988 4.51174 5.27758 4.52854 5.27112 4.54784Z" fill="#00E5E5"/>
</svg>
